<svg width="81" height="53" viewBox="0 0 81 53" fill="none" xmlns="http://www.w3.org/2000/svg">
<path d="M66.4525 0.800049H74.8365C76.5005 0.800049 77.9085 1.37605 79.0605 2.52805C80.2125 3.68005 80.7885 5.08805 80.7885 6.75205V24.352C80.7885 26.1867 80.1699 27.7014 78.9325 28.896C77.6952 30.0907 76.2232 30.688 74.5165 30.688H72.4045V52H66.4525V0.800049ZM74.0685 24.672C74.3672 24.672 74.5165 24.5227 74.5165 24.224V7.20005C74.5165 7.11471 74.4739 7.02938 74.3885 6.94405C74.3032 6.81605 74.1965 6.75205 74.0685 6.75205H72.4045V24.672H74.0685Z" fill="white"/>
<path d="M64.992 0.800049V52H58.976V24.48L58.784 25.76L57.312 52H52.512L51.04 25.76L50.848 24.416V52H44.832V0.800049H53.856L54.56 12.448L54.944 20.128L55.264 12.448L55.968 0.800049H64.992Z" fill="white"/>
<path d="M36.296 52.4481C34.376 52.4481 32.776 51.8721 31.496 50.7201C30.2587 49.5681 29.64 48.1174 29.64 46.3681V34.8481L35.464 32.8641V46.3041C35.464 46.5601 35.5493 46.7521 35.72 46.8801C35.8907 47.0081 36.0827 47.0721 36.296 47.0721C36.552 47.0721 36.744 47.0081 36.872 46.8801C37.0427 46.7521 37.128 46.5601 37.128 46.3041V37.9201C37.128 36.7254 36.8294 35.2747 36.232 33.5681C35.6774 31.8614 34.8667 29.7281 33.8 27.1681C32.4347 23.8827 31.3893 21.0881 30.664 18.784C29.9813 16.4801 29.64 14.2827 29.64 12.1921V7.13605C29.64 5.21605 30.28 3.61605 31.56 2.33605C32.8827 1.01338 34.5253 0.352051 36.488 0.352051C38.408 0.352051 40.0293 1.01338 41.352 2.33605C42.6747 3.61605 43.336 5.21605 43.336 7.13605V17.6961L37.512 19.6161V7.13605C37.512 6.79472 37.4053 6.53872 37.192 6.36805C37.0213 6.19739 36.7867 6.11205 36.488 6.11205C36.1893 6.11205 35.9333 6.19739 35.72 6.36805C35.5493 6.53872 35.464 6.79472 35.464 7.13605V12.1921C35.464 13.7707 35.784 15.5627 36.424 17.5681C37.064 19.5307 37.9814 21.9627 39.176 24.8641C40.456 27.9787 41.3947 30.4961 41.992 32.4161C42.5893 34.3361 42.888 36.1707 42.888 37.9201V46.3681C42.888 48.1174 42.248 49.5681 40.968 50.7201C39.7307 51.8721 38.1733 52.4481 36.296 52.4481Z" fill="white"/>
<path d="M21.616 52.4481C19.8667 52.4481 18.4373 51.9574 17.328 50.9761C16.2187 49.9521 15.664 48.6294 15.664 47.0081C15.664 46.7521 15.7067 46.3681 15.792 45.8561L22.64 7.07205C22.9813 5.15205 23.92 3.55205 25.456 2.27205C26.992 0.992051 28.7413 0.352051 30.704 0.352051C32.4107 0.352051 33.7973 0.864051 34.864 1.88805C35.9307 2.86938 36.464 4.17072 36.464 5.79205C36.464 6.04805 36.4213 6.47472 36.336 7.07205L34.48 17.6321L28.208 19.5521L30.384 7.07205V6.81605C30.384 6.60272 30.32 6.43205 30.192 6.30405C30.064 6.17605 29.8933 6.11205 29.68 6.11205C29.424 6.11205 29.1893 6.19739 28.976 6.36805C28.8053 6.53872 28.6987 6.77338 28.656 7.07205L21.808 45.8561V45.9841C21.808 46.1547 21.872 46.3041 22 46.4321C22.1707 46.5601 22.3627 46.6241 22.576 46.6241C22.7893 46.6241 22.9813 46.5601 23.152 46.4321C23.3653 46.3041 23.4933 46.1121 23.536 45.8561L25.904 32.5441L32.176 30.6241L29.488 45.8561C29.1467 47.7761 28.208 49.3547 26.672 50.5921C25.136 51.8294 23.4507 52.4481 21.616 52.4481Z" fill="white" fill-opacity="0.8"/>
<path d="M15.704 0.352051C17.4107 0.352051 18.7973 0.864051 19.864 1.88805C20.9307 2.86938 21.464 4.17072 21.464 5.79205C21.464 6.04805 21.4213 6.47472 21.336 7.07205L14.488 45.8561C14.1467 47.8614 13.144 49.5041 11.48 50.7841C10.0293 51.8934 8.408 52.4481 6.616 52.4481C4.86667 52.4481 3.43733 51.9574 2.328 50.9761C1.21867 49.9521 0.664001 48.6294 0.664001 47.0081C0.664001 46.7521 0.706668 46.3681 0.792001 45.8561L7.64 7.07205C7.98134 5.15205 8.92 3.55205 10.456 2.27205C11.992 0.992051 13.7413 0.352051 15.704 0.352051ZM15.384 6.81605C15.384 6.60272 15.32 6.43205 15.192 6.30405C15.064 6.17605 14.8933 6.11205 14.68 6.11205C14.424 6.11205 14.1893 6.19739 13.976 6.36805C13.8053 6.53872 13.6987 6.77338 13.656 7.07205L6.808 45.8561V45.9841C6.808 46.1547 6.872 46.3041 7 46.4321C7.17067 46.5601 7.36267 46.6241 7.576 46.6241C7.78934 46.6241 7.98134 46.5601 8.152 46.4321C8.36533 46.3041 8.49333 46.1121 8.536 45.8561L15.384 7.07205V6.81605Z" fill="white" fill-opacity="0.8"/>
</svg>
